<?xml version="1.0" encoding="UTF-8" standalone="no"?>
<svg
   viewBox="0 0 8.28 8.23"
   version="1.1"
   xmlns="http://www.w3.org/2000/svg">
  <g fill="currentColor">
    <polygon points="6.22 0 4.34 1.33 2.79 0.21 2.87 2.07 0.32 2.18 2.46 3.84 2.81 3.63 2.17 2.83 3.48 2.69 3.54 1.51 4.31 1.99 5.53 1.4 5.69 2.76 6.6 2.99 5.84 3.44 6.39 4.41 5.33 4.38 5.24 5.7 4.41 5.06 4.22 5.42 5.66 7.58 5.88 4.96 8.02 5.71 6.7 3.62 8.28 2.9 6.34 2.25 6.22 0" />
    <polygon points="4.24 2.76 1.29 6.04 0.79 5.59 0.55 5.76 2.49 7.51 2.63 7.26 2.13 6.8 5.12 3.56 5.26 2.52 4.24 2.76" />
    <path d="M2.12,7.5l-.84.92A.42.42,0,0,1,1,8.3.46.46,0,0,1,.82,8l.84-.92Z" transform="translate(-0.51 -0.51)" />
    <path d="M1.29,8.74h0A3.1,3.1,0,0,1,.51,8l.23-.18a5.33,5.33,0,0,1,.71.63Z" transform="translate(-0.51 -0.51)" />
  </g>
</svg>
