<?xml version="1.0" encoding="UTF-8" standalone="no"?>
<svg
   viewBox="0 0 6.68 8.18"
   version="1.1"
   xmlns="http://www.w3.org/2000/svg">
  <path
     class="cls-5"
     d="M 6.58,8.18 A 6.1,6.1 0 0 0 6.41,5.36 C 5.36,2.93 0.8,2.29 0.34,0 A 2.59,2.59 0 0 0 0.29,2.55 2.79,2.79 0 0 0 2.29,3.71 2.57,2.57 0 0 1 0,3.07 C 0,3.84 0.8,5.5 3.59,5.68 a 2.89,2.89 0 0 1 -2.37,-0.2 2.39,2.39 0 0 0 1.91,1.27 8.06,8.06 0 0 1 2.39,0.48 3.3,3.3 0 0 1 1.06,1"
     id="path19"
     style="fill:currentColor" />
</svg>
