<?xml version="1.0" encoding="UTF-8" standalone="no"?>
<svg
  viewBox="0 0 64.56005 66.199867"
  version="1.1"
  xmlns="http://www.w3.org/2000/svg"
  fill="currentColor"
>
  <g transform="translate(7.84782,28.500768)">
    <g transform="matrix(5.2987348,0,0,5.2987348,-1.4334823,-13.286211)">
      <path d="M 8,3 C 8,3 6.81,2.59 4.87,0 2.93,2.59 1.78,3 1.78,3 1.78,3 1.2,3 0,1.79 A 24,24 0 0 1 0.51,6 11.29,11.29 0 0 0 4.87,6.9 11.23,11.23 0 0 0 9.23,6 24,24 0 0 1 9.74,1.83 C 8.55,3 8,3 8,3 M 0.61,3.5 0.48,2.68 l 1,0.73 A 1.56,1.56 0 0 0 0.59,3.5 M 8.26,3.35 9.26,2.61 9.14,3.43 A 1.63,1.63 0 0 0 8.25,3.35 M 4.84,1.35 3.3,2.4 4.87,0.66 6.45,2.4 Z" />
    </g>
  </g>
</svg>