<?xml version="1.0" encoding="UTF-8" standalone="no"?>
<svg
  viewBox="0 0 8.25 8.18"
  version="1.1"
  xmlns="http://www.w3.org/2000/svg"
>
  <g fill="currentColor">
  <path d="m 7.66,7.06 a 2.31,2.31 0 0 1 0.48,1 0.06,0.06 0 0 1 -0.06,0.08 H 5.2 L 4.01,7.06 C 3.79,6.62 3.91,6.18 3.51,5.89 A 0.64,0.64 0 0 0 3.05,5.82 7.66,7.66 0 0 1 2.39,4.66 0.11,0.11 0 0 1 2.39,4.58 2.61,2.61 0 0 1 2.68,4.12 C 2.87,3.89 4,2.9 4.05,2.83 A 15.61,15.61 0 0 0 4.92,1.06 C 4.92,1 4.99,0.38 5,0.17 a 0.06,0.06 0 0 1 0.07,-0.06 3.22,3.22 0 0 1 0.89,0.21 2.08,2.08 0 0 1 0.07,-0.28 0.06,0.06 0 0 1 0.08,0 4.7,4.7 0 0 1 2.13,1.66 0.09,0.09 0 0 1 0,0.11 4.47,4.47 0 0 0 -0.67,0.56 L 6.79,1.79 a 0.23,0.23 0 0 0 -0.14,0 0.25,0.25 0 0 0 -0.19,0.09 0.24,0.24 0 0 0 0.11,0.3 L 7.3,2.72 A 7.47,7.47 0 0 0 6.79,3.34 L 6.13,2.86 a 0.24,0.24 0 0 0 -0.14,0 0.26,0.26 0 0 0 -0.19,0.1 0.23,0.23 0 0 0 0,0.33 l 0.77,0.5 a 6.08,6.08 0 0 0 0,1.6 8.48,8.48 0 0 1 -0.14,1.05 c 0.39,0.23 0.91,0.25 1.28,0.62" />
  <path d="m 4.57,0.5 c 0,0.24 0,0.39 0,0.45 v 0.06 l -4,-0.35 A 0,0 0 0 0 0.5,0.58 Z" />
  <path d="M 4.09,1.89 C 4.01,2.04 3.94,2.2 3.87,2.32 L 1.38,2.06 a 0,0 0 0 0 0,-0.09 z" />
  <path d="M 3.06,3.23 2.57,3.68 0.04,3.33 a 0,0 0 0 0 0,-0.09 z" />
  </g>
</svg>
