<?xml version="1.0" encoding="UTF-8" standalone="no"?>
<svg
  viewBox="0 0 10.84 12.99"
  version="1.1"
  xmlns="http://www.w3.org/2000/svg"
>
  <g fill="currentColor">
    <path d="M 1.49,8.85 C 1.49,8.85 0,6.15 0,6.03 a 14.34,14.34 0 0 1 2.68,-3 17.86,17.86 0 0 1 2.29,-0.41 C 5.7,2.44 6.25,2.21 6.48,2.53 A 2.45,2.45 0 0 1 5.74,4.68 3.5,3.5 0 0 1 4.05,5.09 L 3.82,5.37 c 0,0 1.41,1.39 1.15,2.48 A 3.44,3.44 0 0 1 2.34,10.62 8.14,8.14 0 0 0 1.49,8.85" />
    <path d="m 5.29,5.39 a 0.4,0.4 0 0 0 -0.2,0.32 c 0.83,0.93 1,2.28 -0.12,4 a 3.29,3.29 0 0 1 -2.5,1.44 l 0.36,1.8 h 3.16 l 0.28,-1.61 a 0.12,0.12 0 0 1 0.23,0 4.51,4.51 0 0 1 0.34,1.63 H 8.97 A 15.17,15.17 0 0 1 8.73,9.89 6.48,6.48 0 0 1 9.67,8.32 2,2 0 0 0 9.67,6.44 16.58,16.58 0 0 1 5.29,5.39" />
    <path d="M 1.04,3.74 A 5.6,5.6 0 0 1 0.66,1.53 8.5,8.5 0 0 1 2.45,0.15 1.19,1.19 0 0 1 3.32,0.38 l 0.09,1.77 a 5.15,5.15 0 0 0 -1,0.23 9.24,9.24 0 0 0 -1.37,1.36" />
    <path d="M 4.23,2.06 V 0.51 A 6.5,6.5 0 0 1 5.71,0 c 0.42,0 1,0.74 1,0.74 A 5.43,5.43 0 0 1 6.49,1.68 C 6.28,1.73 4.2,2.06 4.2,2.06" />
    <path d="m 7.48,1.22 a 25.29,25.29 0 0 0 -1,3.65 c 0,0.35 1.47,0.64 1.56,0.41 a 29.26,29.26 0 0 0 1,-3.61 C 8.99,1.3 7.91,1.01 7.46,1.22" />
    <path d="M 9.47,2.75 A 16.68,16.68 0 0 0 8.63,5.6 c 0.27,0.31 1.26,0.48 1.54,0 a 7.63,7.63 0 0 0 0.67,-1.92 1.27,1.27 0 0 0 -0.4,-0.87 1.45,1.45 0 0 0 -1,0" />
  </g>
</svg>
