<?xml version="1.0" encoding="UTF-8" standalone="no"?>
<svg
  viewBox="0 0 83.284106 81.550582"
  version="1.1"
  xmlns="http://www.w3.org/2000/svg"
>
  <path fill="currentColor" d="M 68.460889,15.612808 A 14.751579,14.751579 0 0 1 64.047038,6.9012444 40.015109,40.015109 0 0 1 51.270064,4.9847555 39.666646,39.666646 0 0 1 42.035819,0.16436119 39.957033,39.957033 0 0 1 32.859632,5.0428362 40.015109,40.015109 0 0 1 20.082682,6.9013761 15.100042,15.100042 0 0 1 15.61075,15.612939 50.643215,50.643215 0 0 1 7.8864943,22.001404 c 0,0 1.509967,30.722782 11.6154237,42.512426 A 66.846723,66.846723 0 0 0 42.151981,81.472353 66.846723,66.846723 0 0 0 64.802043,64.51383 C 74.791295,52.898428 76.417446,22.001404 76.417446,22.001404 a 52.269376,52.269376 0 0 1 -7.782314,-6.388596" />
</svg>
