<?xml version="1.0" encoding="UTF-8" standalone="no"?>
<svg
  viewBox="0 0 204.15127 204.15072"
  version="1.1"
  xmlns="http://www.w3.org/2000/svg"
>
  <g transform="translate(149.46361,315.90319)">
    <g transform="matrix(0.35277777,0,0,-0.35277777,-153.22138,-107.99449)">
      <g transform="translate(300.0002,15.6523)">
        <path fill="#2e4067" d="m 0,0 c -3.922,0 -7.608,1.527 -10.382,4.3 l -269.666,269.666 c -5.723,5.724 -5.723,15.039 0,20.763 l 269.666,269.667 c 2.774,2.772 6.46,4.299 10.382,4.299 3.922,0 7.608,-1.527 10.382,-4.299 L 280.048,294.729 c 5.723,-5.724 5.723,-15.039 0,-20.763 L 10.382,4.3 C 7.608,1.527 3.922,0 0,0" />
      </g>
      <g transform="translate(300.0002,589.3475)">
        <path fill="#fff" d="m 0,0 c -5.037,0 -10.074,-1.921 -13.917,-5.765 l -269.666,-269.666 c -7.687,-7.686 -7.687,-20.147 0,-27.834 l 269.666,-269.666 c 3.843,-3.842 8.88,-5.764 13.917,-5.764 5.037,0 10.073,1.922 13.917,5.764 l 269.666,269.666 c 7.687,7.687 7.687,20.148 0,27.834 L 13.917,-5.765 C 10.073,-1.921 5.037,0 0,0 m 0,-10 c 2.586,0 5.017,-1.007 6.846,-2.835 l 269.667,-269.667 c 1.828,-1.828 2.835,-4.26 2.835,-6.846 0,-2.586 -1.007,-5.016 -2.836,-6.845 L 6.846,-565.859 c -1.829,-1.829 -4.26,-2.836 -6.846,-2.836 -2.586,0 -5.018,1.007 -6.846,2.836 l -269.667,269.666 c -3.774,3.774 -3.774,9.917 0,13.691 L -6.846,-12.835 C -5.018,-11.007 -2.586,-10 0,-10" />
      </g>
      <g transform="translate(357.3215,312.5732)">
        <path fill="#fff" d="m 0,0 -21.821,-14.767 11.594,-23.745 -25.67,-0.225 -5.547,-26.422 -18.194,15.834 -17.13,-14.06 -2.968,28.519 -28.407,5.382 21.259,21.567 -12.796,25.058 24.567,1.791 17.957,31.158 18.914,-27.007 21.828,8.715 -8.733,-20.144 z m 44.584,8.896 -39.938,-27.027 21.222,-43.457 -46.982,-0.413 -10.151,-48.355 -33.298,28.978 -31.349,-25.73 -5.434,52.192 -51.988,9.851 38.906,39.471 -23.419,45.859 44.961,3.278 32.865,57.025 L -25.406,51.142 14.543,67.091 -1.44,30.225 Z m 22.291,100.966 -81.721,-22.496 -55.461,72.343 -39.277,-93.043 -90.718,1.146 52.798,-66.207 -81.219,-66.757 104.32,-16.577 2.576,-87.396 62.198,51.543 50.264,-45.255 0.696,76.617 82.032,-11.768 -33.066,73.085 74.182,37.024 L 34.95,46.39 Z" />
      </g>
    </g>
  </g>
</svg>
